<mxfile host="app.diagrams.net" modified="2022-11-12T09:35:47.121Z" agent="5.0 (Windows NT 10.0; Win64; x64) AppleWebKit/537.36 (KHTML, like Gecko) Chrome/107.0.0.0 Safari/537.36 Edg/107.0.1418.42" etag="A7KUkR300SQK3Dc0U6WW" version="20.5.3" type="github">
  <diagram id="C5RBs43oDa-KdzZeNtuy" name="Page-1">
    <mxGraphModel dx="288" dy="476" grid="1" gridSize="10" guides="1" tooltips="1" connect="1" arrows="1" fold="1" page="1" pageScale="1" pageWidth="827" pageHeight="1169" math="0" shadow="0">
      <root>
        <mxCell id="WIyWlLk6GJQsqaUBKTNV-0" />
        <mxCell id="WIyWlLk6GJQsqaUBKTNV-1" parent="WIyWlLk6GJQsqaUBKTNV-0" />
        <mxCell id="Yf00FmwXnCh3aqf4aHSr-5" style="edgeStyle=orthogonalEdgeStyle;rounded=0;orthogonalLoop=1;jettySize=auto;html=1;entryX=0.5;entryY=0;entryDx=0;entryDy=0;" edge="1" parent="WIyWlLk6GJQsqaUBKTNV-1" source="Yf00FmwXnCh3aqf4aHSr-0" target="Yf00FmwXnCh3aqf4aHSr-2">
          <mxGeometry relative="1" as="geometry" />
        </mxCell>
        <mxCell id="Yf00FmwXnCh3aqf4aHSr-0" value="Begin" style="ellipse;whiteSpace=wrap;html=1;" vertex="1" parent="WIyWlLk6GJQsqaUBKTNV-1">
          <mxGeometry x="370" y="80" width="80" height="50" as="geometry" />
        </mxCell>
        <mxCell id="Yf00FmwXnCh3aqf4aHSr-1" value="End" style="ellipse;whiteSpace=wrap;html=1;" vertex="1" parent="WIyWlLk6GJQsqaUBKTNV-1">
          <mxGeometry x="370" y="570" width="80" height="60" as="geometry" />
        </mxCell>
        <mxCell id="Yf00FmwXnCh3aqf4aHSr-6" style="edgeStyle=orthogonalEdgeStyle;rounded=0;orthogonalLoop=1;jettySize=auto;html=1;entryX=0.5;entryY=0;entryDx=0;entryDy=0;" edge="1" parent="WIyWlLk6GJQsqaUBKTNV-1" source="Yf00FmwXnCh3aqf4aHSr-2" target="Yf00FmwXnCh3aqf4aHSr-3">
          <mxGeometry relative="1" as="geometry" />
        </mxCell>
        <mxCell id="Yf00FmwXnCh3aqf4aHSr-2" value="LCD and Sensor&amp;nbsp;&lt;br&gt;Initialization" style="rounded=0;whiteSpace=wrap;html=1;" vertex="1" parent="WIyWlLk6GJQsqaUBKTNV-1">
          <mxGeometry x="350" y="200" width="120" height="60" as="geometry" />
        </mxCell>
        <mxCell id="Yf00FmwXnCh3aqf4aHSr-7" style="edgeStyle=orthogonalEdgeStyle;rounded=0;orthogonalLoop=1;jettySize=auto;html=1;entryX=0.5;entryY=0;entryDx=0;entryDy=0;" edge="1" parent="WIyWlLk6GJQsqaUBKTNV-1" source="Yf00FmwXnCh3aqf4aHSr-3" target="Yf00FmwXnCh3aqf4aHSr-4">
          <mxGeometry relative="1" as="geometry" />
        </mxCell>
        <mxCell id="Yf00FmwXnCh3aqf4aHSr-3" value="Get Sensor" style="rhombus;whiteSpace=wrap;html=1;" vertex="1" parent="WIyWlLk6GJQsqaUBKTNV-1">
          <mxGeometry x="355" y="300" width="110" height="50" as="geometry" />
        </mxCell>
        <mxCell id="Yf00FmwXnCh3aqf4aHSr-13" value="" style="edgeStyle=orthogonalEdgeStyle;rounded=0;orthogonalLoop=1;jettySize=auto;html=1;" edge="1" parent="WIyWlLk6GJQsqaUBKTNV-1" source="Yf00FmwXnCh3aqf4aHSr-4" target="Yf00FmwXnCh3aqf4aHSr-10">
          <mxGeometry relative="1" as="geometry" />
        </mxCell>
        <mxCell id="Yf00FmwXnCh3aqf4aHSr-4" value="Display on&amp;nbsp;&amp;nbsp;&lt;br&gt;LCD" style="rounded=0;whiteSpace=wrap;html=1;" vertex="1" parent="WIyWlLk6GJQsqaUBKTNV-1">
          <mxGeometry x="350" y="380" width="120" height="60" as="geometry" />
        </mxCell>
        <mxCell id="Yf00FmwXnCh3aqf4aHSr-11" value="" style="edgeStyle=orthogonalEdgeStyle;rounded=0;orthogonalLoop=1;jettySize=auto;html=1;" edge="1" parent="WIyWlLk6GJQsqaUBKTNV-1" source="Yf00FmwXnCh3aqf4aHSr-10" target="Yf00FmwXnCh3aqf4aHSr-1">
          <mxGeometry relative="1" as="geometry" />
        </mxCell>
        <mxCell id="Yf00FmwXnCh3aqf4aHSr-10" value="Stop" style="rhombus;whiteSpace=wrap;html=1;" vertex="1" parent="WIyWlLk6GJQsqaUBKTNV-1">
          <mxGeometry x="365" y="470" width="90" height="60" as="geometry" />
        </mxCell>
        <mxCell id="Yf00FmwXnCh3aqf4aHSr-12" value="" style="endArrow=classic;html=1;rounded=0;exitX=0;exitY=0.5;exitDx=0;exitDy=0;" edge="1" parent="WIyWlLk6GJQsqaUBKTNV-1" source="Yf00FmwXnCh3aqf4aHSr-3">
          <mxGeometry width="50" height="50" relative="1" as="geometry">
            <mxPoint x="410" y="440" as="sourcePoint" />
            <mxPoint x="410" y="280" as="targetPoint" />
            <Array as="points">
              <mxPoint x="300" y="325" />
              <mxPoint x="300" y="280" />
            </Array>
          </mxGeometry>
        </mxCell>
        <mxCell id="Yf00FmwXnCh3aqf4aHSr-14" value="" style="endArrow=classic;html=1;rounded=0;exitX=1;exitY=0.5;exitDx=0;exitDy=0;" edge="1" parent="WIyWlLk6GJQsqaUBKTNV-1" source="Yf00FmwXnCh3aqf4aHSr-10">
          <mxGeometry width="50" height="50" relative="1" as="geometry">
            <mxPoint x="480" y="500" as="sourcePoint" />
            <mxPoint x="410" y="280" as="targetPoint" />
            <Array as="points">
              <mxPoint x="510" y="500" />
              <mxPoint x="510" y="280" />
            </Array>
          </mxGeometry>
        </mxCell>
        <mxCell id="Yf00FmwXnCh3aqf4aHSr-15" value="N" style="text;html=1;strokeColor=none;fillColor=none;align=center;verticalAlign=middle;whiteSpace=wrap;rounded=0;" vertex="1" parent="WIyWlLk6GJQsqaUBKTNV-1">
          <mxGeometry x="330" y="300" width="25" height="20" as="geometry" />
        </mxCell>
        <mxCell id="Yf00FmwXnCh3aqf4aHSr-17" value="N" style="text;html=1;strokeColor=none;fillColor=none;align=center;verticalAlign=middle;whiteSpace=wrap;rounded=0;" vertex="1" parent="WIyWlLk6GJQsqaUBKTNV-1">
          <mxGeometry x="450" y="480" width="25" height="20" as="geometry" />
        </mxCell>
        <mxCell id="Yf00FmwXnCh3aqf4aHSr-18" value="Y" style="text;html=1;strokeColor=none;fillColor=none;align=center;verticalAlign=middle;whiteSpace=wrap;rounded=0;" vertex="1" parent="WIyWlLk6GJQsqaUBKTNV-1">
          <mxGeometry x="414" y="350" width="25" height="20" as="geometry" />
        </mxCell>
        <mxCell id="Yf00FmwXnCh3aqf4aHSr-19" value="Y" style="text;html=1;strokeColor=none;fillColor=none;align=center;verticalAlign=middle;whiteSpace=wrap;rounded=0;" vertex="1" parent="WIyWlLk6GJQsqaUBKTNV-1">
          <mxGeometry x="414" y="540" width="25" height="20" as="geometry" />
        </mxCell>
      </root>
    </mxGraphModel>
  </diagram>
</mxfile>
